/* XPM */
static char *result[] = {
/* columns rows colors chars-per-pixel */
"64 64 137 2 ",
"   c #AD7A7E",
".  c #A2676B",
"X  c black",
"o  c #000301",
"O  c #090506",
"+  c #000005",
"@  c #010004",
"#  c #CBAD67",
"$  c #CEAB67",
"%  c #050704",
"&  c #080000",
"*  c #010200",
"=  c #110300",
"-  c #010000",
";  c #0D0300",
":  c #CAAC66",
">  c #00050B",
",  c #0E0100",
"<  c #0A0300",
"1  c #7E611B",
"2  c #C9AB65",
"3  c #0F0100",
"4  c #030400",
"5  c #080100",
"6  c #AC8527",
"7  c #000104",
"8  c #0F0000",
"9  c #040000",
"0  c #070601",
"q  c #0E0603",
"w  c #0D0000",
"e  c #090300",
"r  c #0C0000",
"t  c #CBAD64",
"y  c #100806",
"u  c #020005",
"i  c #663A2F",
"p  c #693D32",
"a  c #050409",
"s  c #020100",
"d  c #030301",
"f  c #010101",
"g  c #683C31",
"h  c #0B0400",
"j  c #110000",
"k  c #010100",
"l  c #070000",
"z  c #623C2F",
"x  c #673B30",
"c  c #623C3B",
"v  c #110900",
"b  c #000002",
"n  c #040006",
"m  c #653D31",
"M  c #663C30",
"N  c #060100",
"B  c #000203",
"V  c #140A00",
"C  c #673D2F",
"Z  c #060000",
"A  c #6B3F34",
"S  c #060600",
"D  c #030000",
"F  c #050200",
"G  c #CAAC63",
"H  c #CBAD65",
"J  c #CFBA83",
"K  c #D0BC89",
"L  c #D3B26F",
"P  c #D0B15E",
"I  c #D2B887",
"U  c #643C30",
"Y  c #673B2E",
"T  c #653B2F",
"R  c #D3B261",
"E  c #CEAD60",
"W  c #CFB988",
"Q  c #643A2C",
"!  c #604033",
"~  c #5F4139",
"^  c #000200",
"/  c #060200",
"(  c #CEB887",
")  c #663F30",
"_  c #683D2D",
"`  c #000100",
"'  c #CDA861",
"]  c #010002",
"[  c #CDB786",
"{  c #CDA75E",
"}  c #CDAA66",
"|  c #0A0000",
" . c #0B0200",
".. c #633B2F",
"X. c #663B2B",
"o. c #CCAB66",
"O. c #05040A",
"+. c #C6AC5F",
"@. c #C4AB6B",
"#. c #D4AD6C",
"$. c #040600",
"%. c #040402",
"&. c #65392E",
"*. c #C4A958",
"=. c #030905",
"-. c #C3A35A",
";. c #030600",
":. c #070300",
">. c #090000",
",. c #090810",
"<. c #CAA973",
"1. c #0A0501",
"2. c #664033",
"3. c #673F33",
"4. c #6A3E33",
"5. c #693E2E",
"6. c #C3A452",
"7. c #9D6F3B",
"8. c #070400",
"9. c #0B0000",
"0. c #623A2E",
"q. c #673C2C",
"w. c #CCAE66",
"e. c #CDAA68",
"r. c #0A0001",
"t. c #040300",
"y. c #040507",
"u. c #5F3F30",
"i. c #CEB068",
"p. c #C5A960",
"a. c #070700",
"s. c #CCAE65",
"d. c #9B6C34",
"f. c #030305",
"g. c #0E0400",
"h. c #01090B",
"j. c white",
/* pixels */
"        . . . .                         . . . .                         . . . .                         . . . .                 ",
"        . . . .                         . . . .                         . . . .                         . . . .                 ",
"        . . . .                         . . . .                         . . . .                         . . . .                 ",
"        . . . .                         . . . .                         . . . .                         . . . .                 ",
"        . . . .                         . . . .                         . . . .                         . . . .                 ",
"        . . . .                         . . . .                         . . . .                         . . . .                 ",
"        . . . .                         . . . .                         . . . .                         . . . .                 ",
"        . . . .                         . . . .                         . . . .                         . . . .                 ",
"        . . . .                         . . . .                         . . . .                         . . . .                 ",
"        . . . .                         . . . .                         . . . .                         . . . .                 ",
"        . . . .                         . . . .                         . . . .                         . . . .                 ",
"        . . . .                         . . . .                         . . . .                         . . . .                 ",
"        . . . .                         . . . .                         . . . .                         . . . .                 ",
"        . . . .                         . . . .                         . . . .                         . . . .                 ",
"        . . . .                         . . . .                         . . . .                         . . . .                 ",
"        . . . .                         . . . .           X X X o O + X . . . .                         . . . .                 ",
"        . . . .                         . . . .         X @ # # $ $ # % + + . .                         . . . .                 ",
"        . . . .                         . . . .     & X # # # * * $ # # # = & .                         . . . .                 ",
"        . . . .                         . . . . - ; # # : # * # # * * # # # # > ,                       . . . .                 ",
"        . . . .                         . . < O 1 1 $ $ # * # $ $ 2 # * # # : 2 # X 3                   . . . .                 ",
"        . . . .                         4 5 # # 6 6 1 1 $ $ * * # # * # # # # # # # # 7 8               . . . .                 ",
"        . . . .                     9 X # $ # # $ # 6 6 1 1 $ $ * * # # # # # # # # # # # 7 8           . . . .                 ",
"        . . . .                 0 q # # # # # # # # 2 # 6 6 1 1 $ $ $ # # # # # # # # # # # # 7 w       . . . .                 ",
"        . . . .               & e r # : 2 # # : 2 # # # # # 6 6 1 1 $ $ t 2 # # # # # # # # # # y u     . . . .                 ",
"        . . . .               X i p 7 # # # # # # # # # # # # 2 6 6 1 1 $ $ # # # # # # # : a s # d     . . . .                 ",
"        . . . .               f p p g X h # # # # # # # # # # $ # $ 6 6 1 1 $ $ # # # # j 9 # # : k     . . . .                 ",
"        . . . .               X g i i i i h X # # # # # # # # # # 2 # # 6 6 1 1 $ # X l # # # # # s     . . . .                 ",
"        . . . .               f i z i x g c c 7 v # # # # # : 2 # # # # # # 6 6 X b # # # # # # : s     . . . .                 ",
"        . . . .               n i z i z i m m c x j v $ $ # # # # # # # # : X X # # $ $ # # # # : s     . . . .                 ",
"        . . . .               l g p z i z i z m M M i N v # # # # # # # B X # # # $ $ $ # # # # : s     . . . .                 ",
"        . . . .               l i i p g M c i i g g m M m v v # # # X V # # : # # # # # 2 # # # # s     . . . .                 ",
"        . . . .               n p p i p g m M C p p p g m M i Z * X # # $ # # $ # $ $ 2 # # # # # s     . . . .                 ",
"        . . . .               l x i i x p p p A x i i p p g m c S # # # # # # # # 2 # # # # # # # s     . . . .                 ",
"        . . . .               f z i M M c i i i g i i i i p p m D # : 2 # # : 2 # # # # # # # # # u     . . . .                 ",
"        . . . .               X i x x x z i x z i z i x g i i p F # # # # # # # # # # # # # # # t d     . . . .                 ",
"        . . . .               f p z i x g i z z i z i z i i i i D # # # # # # # # # # # # # t # G k     . . . .                 ",
"        . . . .               n x z i x g i p p g p g g m g i i D # # # # # # # # # # # # # H J K s     . . . .                 ",
"        . . . .               l z z i z i i i i p i p p p p p p D 2 # # # # # # # # # $ L # # P # s     . . . .                 ",
"        . . . .               l m p g g m g i i x i i x x x i i D # # # # # # # # # # $ I # X X # s     . . . .                 ",
"        . . . .               l U i p p p Y T M M c i i x g i i D # # # # # # # # # R E W X # X # k     . . . .                 ",
"        . . . .               & m g x g i g x g g m M C C Q ! ~ ^ # # # # # : # t / w - ( X # X # k     . . . .                 ",
"        . . . .               Z ) p p p p p g p p p p A c i i _ - 2 # # # # # : ` ' X ] [ X X { } s     . . . .                 ",
"        . . . .                 |  ...U x x x x i i i g m M C X.- # # # # # : o.O.X # - +.@.#.$.F       . . . .                 ",
"        . . . .                     %.X z i x g i i &.p p p A _ - # # # # # # # & *.=.# -.X ;.          . . . .                 ",
"        . . . .                         :.>.x i i i &.x i x i X.- # # # # # : : ,.X <.1.-               . . . .                 ",
"        . . . .                         . . k X 2.3.p 4.4.&.4.5.- # # # # # # # 6.7.b                   . . . .                 ",
"        . . . .                         . . . . 8.9.0.m &.&.&.q.- # # # # w.e.r.t.X                     . . . .                 ",
"        . . . .                         . . . .     y.X u.i g _ - # # i.p.* a..                         . . . .                 ",
"        . . . .                         . . . .         X & &.q.- s.d.N X . . .                         . . . .                 ",
"        . . . .                         . . . .             f.X - g.h.  . . . .                         . . . .                 ",
"        . . . .                         . . . .                         . . . .                         . . . .                 ",
"        . . . .                         . . . .                         . . . .                         . . . .                 ",
"        . . . .                         . . . .                         . . . .                         . . . .                 ",
"        . . . .                         . . . .                         . . . .                         . . . .                 ",
"        . . . .                         . . . .                         . . . .                         . . . .                 ",
"        . . . .                         . . . .                         . . . .                         . . . .                 ",
"        . . . .                         . . . .                         . . . .                         . . . .                 ",
"        . . . .                         . . . .                         . . . .                         . . . .                 ",
"        . . . .                         . . . .                         . . . .                         . . . .                 ",
"        . . . .                         . . . .                         . . . .                         . . . .                 ",
"        . . . .                         . . . .                         . . . .                         . . . .                 ",
"        . . . .                         . . . .                         . . . .                         . . . .                 ",
"        . . . .                         . . . .                         . . . .                         . . . .                 ",
"        . . . .                         . . . .                         . . . .                         . . . .                 "
};
