/* XPM */
static char *result[] = {
/* columns rows colors chars-per-pixel */
"64 128 79 1 ",
"  c #010101",
". c #0B0100",
"X c #050906",
"o c #03030A",
"O c #0A000C",
"+ c #01090B",
"@ c #090B0D",
"# c #110200",
"$ c #110901",
"% c #090810",
"& c #573D30",
"* c #5E3C30",
"= c #5E3C3A",
"- c #653A2F",
"; c #693D2D",
": c #663C31",
"> c #693D32",
", c #623C3B",
"< c #6A3F39",
"1 c #703B33",
"2 c #7E611B",
"3 c #5F4139",
"4 c #64402E",
"5 c #644033",
"6 c #694033",
"7 c #64413C",
"8 c #976A2F",
"9 c #9E6633",
"0 c #976934",
"q c #9C6B33",
"w c #9E6D3B",
"e c #987533",
"r c #9F723B",
"t c #A76B2F",
"y c #A56C35",
"u c #A26D3D",
"i c #A47331",
"p c #A1713C",
"a c #AB743C",
"s c #8E6844",
"d c #976D43",
"f c #9D6E43",
"g c #966948",
"h c #9D744B",
"j c #917452",
"k c #9C7556",
"l c #A26D42",
"z c #A87341",
"x c #A0754A",
"c c #A4784B",
"v c #A2676B",
"b c #AD7A7E",
"n c #AC8527",
"m c #BFA362",
"M c #C3A452",
"N c #C4A45A",
"B c #CDA75E",
"V c #C5AB5C",
"C c #CBAD5D",
"Z c #D0B15E",
"A c #C5A960",
"S c #CBAD67",
"D c #CFA76A",
"F c #C4AB6C",
"G c #CCAB69",
"H c #D1AB65",
"J c #D3AD6C",
"K c #CBB061",
"L c #CEB068",
"P c #D3B261",
"I c #D3B36F",
"U c #CCAA72",
"Y c #D3B670",
"T c #BEB282",
"R c #CDB786",
"E c #CFB985",
"W c #CFB988",
"Q c #D2B887",
"! c #D0BC89",
/* pixels */
"bbbbvvvvbbbbbbbbbbbbvvvvbbbbbbbbbbbbvvvvbbbbbbbbbbbbvvvvbbbbbbbb",
"bbbbvvvvbbbbbbbbbbbbvvvvbbbbbbbbbbbbvvvvbbbbbbbbbbbbvvvvbbbbbbbb",
"bbbbvvvvbbbbbbbbbbbbvvvvbbbbbbbbbbbbvvvvbbbbbbbbbbbbvvvvbbbbbbbb",
"bbbbvvvvbbbbbbbbbbbbvvvvbbbbbbbbbbbbvvvvbbbbbbbbbbbbvvvvbbbbbbbb",
"bbbbvvvvbbbbbbbbbbbbvvvvbbbbbbbbbbbbvvvvbbbbbbbbbbbbvvvvbbbbbbbb",
"bbbbvvvvbbbbbbbbbbbbvvvvbbbbbbbbbbbbvvvvbbbbbbbbbbbbvvvvbbbbbbbb",
"bbbbvvvvbbbbbbbbbbbbvvvvbbbbbbbbbbbbvvvvbbbbbbbbbbbbvvvvbbbbbbbb",
"bbbbvvvvbbbbbbbbbbbbvvvvbbbbbbbbbbbbvvvvbbbbbbbbbbbbvvvvbbbbbbbb",
"bbbbvvvvbbbbbbbbbbbbvvvvbbbbbbbbbbbbvvvvbbbbbbbbbbbbvvvvbbbbbbbb",
"bbbbvvvvbbbbbbbbbbbbvvvvbbbbbbbbbbbbvvvvbbbbbbbbbbbbvvvvbbbbbbbb",
"bbbbvvvvbbbbbbbbbbbbvvvvbbbbbbbbbbbbvvvvbbbbbbbbbbbbvvvvbbbbbbbb",
"bbbbvvvvbbbbbbbbbbbbvvvvbbbbbbbbbbbbvvvvbbbbbbbbbbbbvvvvbbbbbbbb",
"bbbbvvvvbbbbbbbbbbbbvvvvbbbbbbbbbbbbvvvvbbbbbbbbbbbbvvvvbbbbbbbb",
"bbbbvvvvbbbbbbbbbbbbvvvvbbbbbbbbbbbbvvvvbbbbbbbbbbbbvvvvbbbbbbbb",
"bbbbvvvvbbbbbbbbbbbbvvvvbbbbbbbbbbbbvvvvbbbbbbbbbbbbvvvvbbbbbbbb",
"bbbbvvvvbbbbbbbbbbbbvvvvbbbbb    oo vvvvbbbbbbbbbbbbvvvvbbbbbbbb",
"bbbbvvvvbbbbbbbbbbbbvvvvbbbb  SSGGSX  vvbbbbbbbbbbbbvvvvbbbbbbbb",
"bbbbvvvvbbbbbbbbbbbbvvvvbb. SSS  SSSS# vbbbbbbbbbbbbvvvvbbbbbbbb",
"bbbbvvvvbbbbbbbbbbbbvvvv .SSSS SS  SSSS+.bbbbbbbbbbbvvvvbbbbbbbb",
"bbbbvvvvbbbbbbbbbbbbvv.X22GGS SGSSS SSSSS #bbbbbbbbbvvvvbbbbbbbb",
"bbbbvvvvbbbbbbbbbbbb .SSnn22SS  SS SSSSSSSS .bbbbbbbvvvvbbbbbbbb",
"bbbbvvvvbbbbbbbbbb  SSSSGSnn22HS  SSSSSSSSSSS .bbbbbvvvvbbbbbbbb",
"bbbbvvvvbbbbbbbb $SSSSSSSSSSnn22SHGSSSSSSSSSSGL .bbbvvvvbbbbbbbb",
"bbbbvvvvbbbbbbb...SSSSSSSSSSSGnn22GSSSSSGSSSSSSS$ bbvvvvbbbbbbbb",
"bbbbvvvvbbbbbbb :> SSSSSSSSSSSSSnn22GSSSSSSSSS+ S bbvvvvbbbbbbbb",
"bbbbvvvvbbbbbbb :>: XSSSSSSSSSSSSSnn22GGSSSG# SSS bbvvvvbbbbbbbb",
"bbbbvvvvbbbbbbb ::-::. SSSSSSSSSSSSSnn22GS  SSSSS bbvvvvbbbbbbbb",
"bbbbvvvvbbbbbbb ::-->,, $SSSSSSSLSSSSSnn  SSSSSSS bbvvvvbbbbbbbb",
"bbbbvvvvbbbbbbb --:-:::=:#$SSSSSSSSSSS  SSGHSSSSS bbvvvvbbbbbbbb",
"bbbbvvvvbbbbbbb :>-----:->- $SSSSSSS  SSSSHGSSSSS bbvvvvbbbbbbbb",
"bbbbvvvvbbbbbbb.-::::,-:>>:::$$SSS $SSSSSGSSSSSSS bbvvvvbbbbbbbb",
"bbbbvvvvbbbbbbbO>::>:::;>>::::-   SSGSSGSGGSSSSSS bbvvvvbbbbbbbb",
"bbbbvvvvbbbbbbb :--::::>:-->:1,, SSSSSSSSFSSSSSSS bbvvvvbbbbbbbb",
"bbbbvvvvbbbbbbb :-::,-:-::---::: SSSSSSSSSSSSSSSL bbvvvvbbbbbbbb",
"bbbbvvvvbbbbbbb ::-::-:--*-11--1 SSSSSSSSKSSSSSSS bbvvvvbbbbbbbb",
"bbbbvvvvbbbbbbb :--::-:----:---- SSSSSSSSSSSSSSSS bbvvvvbbbbbbbb",
"bbbbvvvvbbbbbbb :-::::>>:::::>-- SSGSSSLSSSGSSSE! bbvvvvbbbbbbbb",
"bbbbvvvvbbbbbbb.-------:>->>>>>> SSSSSSSSSSHYSKKS bbvvvvbbbbbbbb",
"bbbbvvvvbbbbbbb :>>>:>-----1---- SSSSGLSLSSSQS  S bbvvvvbbbbbbbb",
"bbbbvvvvbbbbbbb.:->>>---:,--:>-1 SSSSSSSSSZSW S S bbvvvvbbbbbbbb",
"bbbbvvvvbbbbbbb.:::>->:>>:::--:3 SSSSSSSS . R S S bbvvvvbbbbbbbb",
"bbbbvvvvbbbbbbb 6>>>>>>>>>>>=--; FSSSSSS S  R  BH bbvvvvbbbbbbbb",
"bbbbvvvvbbbbbbbb..-->-:---->::;; SSSSSSSo S VFJ  bbbvvvvbbbbbbbb",
"bbbbvvvvbbbbbbbbbb  --:>>-->>66; SSSSSSS.NXSN Xbbbbbvvvvbbbbbbbb",
"bbbbvvvvbbbbbbbbbbbb .;--:-:-:-- SSSSLSS% U. bbbbbbbvvvvbbbbbbbb",
"bbbbvvvvbbbbbbbbbbbbvv  6:>>>->; SSSSSSSMw bbbbbbbbbvvvvbbbbbbbb",
"bbbbvvvvbbbbbbbbbbbbvvvv .-:---- SSSLSG.  bbbbbbbbbbvvvvbbbbbbbb",
"bbbbvvvvbbbbbbbbbbbbvvvvbbo :--; SSLV  vbbbbbbbbbbbbvvvvbbbbbbbb",
"bbbbvvvvbbbbbbbbbbbbvvvvbbbb .:- Sq  vvvbbbbbbbbbbbbvvvvbbbbbbbb",
"bbbbvvvvbbbbbbbbbbbbvvvvbbbbbb   .+bvvvvbbbbbbbbbbbbvvvvbbbbbbbb",
"bbbbvvvvbbbbbbbbbbbbvvvvbbbbbbbbbbbbvvvvbbbbbbbbbbbbvvvvbbbbbbbb",
"bbbbvvvvbbbbbbbbbbbbvvvvbbbbbbbbbbbbvvvvbbbbbbbbbbbbvvvvbbbbbbbb",
"bbbbvvvvbbbbbbbbbbbbvvvvbbbbbbbbbbbbvvvvbbbbbbbbbbbbvvvvbbbbbbbb",
"bbbbvvvvbbbbbbbbbbbbvvvvbbbbbbbbbbbbvvvvbbbbbbbbbbbbvvvvbbbbbbbb",
"bbbbvvvvbbbbbbbbbbbbvvvvbbbbbbbbbbbbvvvvbbbbbbbbbbbbvvvvbbbbbbbb",
"bbbbvvvvbbbbbbbbbbbbvvvvbbbbbbbbbbbbvvvvbbbbbbbbbbbbvvvvbbbbbbbb",
"bbbbvvvvbbbbbbbbbbbbvvvvbbbbbbbbbbbbvvvvbbbbbbbbbbbbvvvvbbbbbbbb",
"bbbbvvvvbbbbbbbbbbbbvvvvbbbbbbbbbbbbvvvvbbbbbbbbbbbbvvvvbbbbbbbb",
"bbbbvvvvbbbbbbbbbbbbvvvvbbbbbbbbbbbbvvvvbbbbbbbbbbbbvvvvbbbbbbbb",
"bbbbvvvvbbbbbbbbbbbbvvvvbbbbbbbbbbbbvvvvbbbbbbbbbbbbvvvvbbbbbbbb",
"bbbbvvvvbbbbbbbbbbbbvvvvbbbbbbbbbbbbvvvvbbbbbbbbbbbbvvvvbbbbbbbb",
"bbbbvvvvbbbbbbbbbbbbvvvvbbbbbbbbbbbbvvvvbbbbbbbbbbbbvvvvbbbbbbbb",
"bbbbvvvvbbbbbbbbbbbbvvvvbbbbbbbbbbbbvvvvbbbbbbbbbbbbvvvvbbbbbbbb",
"bbbbvvvvbbbbbbbbbbbbvvvvbbbbbbbbbbbbvvvvbbbbbbbbbbbbvvvvbbbbbbbb",
"bbbbvvvvbbbbbbbbbbbbvvvvbbbbbbbbbbbbvvvvbbbbbbbbbbbbvvvvbbbbbbbb",
"bbbbvvvvbbbbbbbbbbbbvvvvbbbbbbbbbbbbvvvvbbbbbbbbbbbbvvvvbbbbbbbb",
"bbbbvvvvbbbbbbbbbbbbvvvvbbbbbbbbbbbbvvvvbbbbbbbbbbbbvvvvbbbbbbbb",
"bbbbvvvvbbbbbbbbbbbbvvvvbbbbbbbbbbbbvvvvbbbbbbbbbbbbvvvvbbbbbbbb",
"bbbbvvvvbbbbbbbbbbbbvvvvbbbbbbbbbbbbvvvvbbbbbbbbbbbbvvvvbbbbbbbb",
"bbbbvvvvbbbbbbbbbbbbvvvvbbbbbbbbbbbbvvvvbbbbbbbbbbbbvvvvbbbbbbbb",
"bbbbvvvvbbbbbbbbbbbbvvvvbbbbbbbbbbbbvvvvbbbbbbbbbbbbvvvvbbbbbbbb",
"bbbbvvvvbbbbbbbbbbbbvvvvbbbbbbbbbbbbvvvvbbbbbbbbbbbbvvvvbbbbbbbb",
"bbbbvvvvbbbbbbbbbbbbvvvvbbbbbbbbbbbbvvvvbbbbbbbbbbbbvvvvbbbbbbbb",
"bbbbvvvvbbbbbbbbbbbbvvvvbbbbbbbbbbbbvvvvbbbbbbbbbbbbvvvvbbbbbbbb",
"bbbbvvvvbbbbbbbbbbbbvvvvbbbbbbbbbbbbvvvvbbbbbbbbbbbbvvvvbbbbbbbb",
"bbbbvvvvbbbbbbbbbbbbvvvvbbbbbbbbbbbbvvvvbbbbbbbbbbbbvvvvbbbbbbbb",
"bbbbvvvvbbbbbbbbbbbbvvvvbbbbbbbbbbbbvvvvbbbbbbbbbbbbvvvvbbbbbbbb",
"bbbbvvvvbbbbbbbbbbbbvvvvbbbbbbbbbbbbvvvvbbbbbbbbbbbbvvvvbbbbbbbb",
"bbbbvvvvbbbbbbbbbbbbvvvvbbbbbbbbbbbbvvvvbbbbbbbbbbbbvvvvbbbbbbbb",
"bbbbvvvvbbbbbbbbbbbbvvvvbbXXX    O  XXXvbbbbbbbbbbbbvvvvbbbbbbbb",
"bbbbvvvvbbbbbbbbbbbbvvvv .--* SS 4< lwpo bbbbbbbbbbbvvvvbbbbbbbb",
"bbbbvvvvbbbbbbbbbbbb    :&   SSS >66=# yu   @bbbbbbbvvvvbbbbbbbb",
"bbbbvvvvbbbbbbbbbbb :--: .KSSSSS :>;:4-o.uypk@bbbbbbvvvvbbbbbbbb",
"bbbbvvvvbbbbbbbbX  5:7. HSSSLSSL >>>>::>7 .Gul + bbbvvvvbbbbbbbb",
"bbbbvvvvbbbbbbb :4:: .SSSSSSSSLA >::>>-:::- #zrfsobbvvvvbbbbbbbb",
"bbbbvvvvbbbb   -:&  HSSSSSSSLSSS >:1><1;>::::7$Jww   vvvbbbbbbbb",
"bbbbvvvvbb  ;>6<.$SSSSSSSSSSSSSS :::>>->:>->::* .iial vvbbbbbbbb",
"bbbbvvvvbb .   ...SSSGSSSSSSSSSS <::->>->->:>-: $X  .  vbbbbbbbb",
"bbbbvvvvbbbbbb fl  SSSSLSLSSSSSS >:->>-::>::< o9SC bvvvvbbbbbbbb",
"bbbbvvvvbbbbb dwuuq ..SDSSSSSSSS ::1>>-:->; #99SSIT vvvvbbbbbbbb",
"bbbbvvvvbbbbb wuuuuy.. GSSSSSSSS :->-;----  8SKSSSS vvvvbbbbbbbb",
"bbbbvvvvbbbb uwuuuuuuuH VSSSSLSS :>->>--  qSSSLSSLGB vvvbbbbbbbb",
"bbbbvvvvbbbb.lyluuuuuuu0##  GSSA >:>-  .9GHGSSSSSSGH vvvbbbbbbbb",
"bbbbvvvvbbb jlupuuuuuuuuupu +SSS >:, xpSSHGSSSSSSSGS.vvvbbbbbbbb",
"bbbbvvvvbbb wywuuuuuuuuuuuuuD$     $eSSSSSSSSSSSSSSSA+vvbbbbbbbb",
"bbbbvvvvbbbb .uruuuuuuuuwuuuuuw   SSHSSSSSGSSSLSSSJN vvvbbbbbbbb",
"bbbbvvvvbbbbbb  tuuluuupluuuluy . LSSSSSSSSSSSSHFA ovvvvbbbbbbbb",
"bbbbvvvvbbbbbbb  .lluuuupupupul  .GSSSSSSSSDSSSo.obbvvvvbbbbbbbb",
"bbbbvvvvbbbbbbb    hyulwuuylww   l CSSSSLGSSI .wS bbvvvvbbbbbbbb",
"bbbbvvvvbbbbbbb      .lfullwu.   pu SSSSSHG .SSSA bbvvvvbbbbbbbb",
"bbbbvvvvbbbbbbb        hyulw9    uq SSSGmo.0SGSEW bbvvvvbbbbbbbb",
"bbbbvvvvbbbbbbb :&       .pyz    uu.DCSo.LSHISSZS bbvvvvbbbbbbbb",
"bbbbvvvvbbbbbbb.:5***    .Ok.    ull  OgFSSGQS  S bbvvvvbbbbbbbb",
"bbbbvvvvbbbbbbb ::-:---::, oo    uuuoc8SSSPSQ S S bbvvvvbbbbbbbb",
"bbbbvvvvbbbbbbb.:>:>->:>>:::--:7 GDSSSSSS.. E S L bbvvvvbbbbbbbb",
"bbbbvvvvbbbbbbb :>>>>>:>>>:>>>6- SSSSSSS A  E  BS bbvvvvbbbbbbbb",
"bbbbvvvvbbbbbbbb..-::>:-:--:---; SSSSSSSo S AFI  bbbvvvvbbbbbbbb",
"bbbbvvvvbbbbbbbbbb  --->-:-:---; SSSSSSS.NXSN  bbbbbvvvvbbbbbbbb",
"bbbbvvvvbbbbbbbbbbbb .>--------; SSSSSSS@ U  bbbbbbbvvvvbbbbbbbb",
"bbbbvvvvbbbbbbbbbbbbvv  66>>>->; SSSSSSSMw bbbbbbbbbvvvvbbbbbbbb",
"bbbbvvvvbbbbbbbbbbbbvvvv .------ SSSSSG   bbbbbbbbbbvvvvbbbbbbbb",
"bbbbvvvvbbbbbbbbbbbbvvvvbbo :-;; SSLV $vbbbbbbbbbbbbvvvvbbbbbbbb",
"bbbbvvvvbbbbbbbbbbbbvvvvbbbb .-; Sq. vvvbbbbbbbbbbbbvvvvbbbbbbbb",
"bbbbvvvvbbbbbbbbbbbbvvvvbbbbbb   .+bvvvvbbbbbbbbbbbbvvvvbbbbbbbb",
"bbbbvvvvbbbbbbbbbbbbvvvvbbbbbbbbbbbbvvvvbbbbbbbbbbbbvvvvbbbbbbbb",
"bbbbvvvvbbbbbbbbbbbbvvvvbbbbbbbbbbbbvvvvbbbbbbbbbbbbvvvvbbbbbbbb",
"bbbbvvvvbbbbbbbbbbbbvvvvbbbbbbbbbbbbvvvvbbbbbbbbbbbbvvvvbbbbbbbb",
"bbbbvvvvbbbbbbbbbbbbvvvvbbbbbbbbbbbbvvvvbbbbbbbbbbbbvvvvbbbbbbbb",
"bbbbvvvvbbbbbbbbbbbbvvvvbbbbbbbbbbbbvvvvbbbbbbbbbbbbvvvvbbbbbbbb",
"bbbbvvvvbbbbbbbbbbbbvvvvbbbbbbbbbbbbvvvvbbbbbbbbbbbbvvvvbbbbbbbb",
"bbbbvvvvbbbbbbbbbbbbvvvvbbbbbbbbbbbbvvvvbbbbbbbbbbbbvvvvbbbbbbbb",
"bbbbvvvvbbbbbbbbbbbbvvvvbbbbbbbbbbbbvvvvbbbbbbbbbbbbvvvvbbbbbbbb",
"bbbbvvvvbbbbbbbbbbbbvvvvbbbbbbbbbbbbvvvvbbbbbbbbbbbbvvvvbbbbbbbb",
"bbbbvvvvbbbbbbbbbbbbvvvvbbbbbbbbbbbbvvvvbbbbbbbbbbbbvvvvbbbbbbbb",
"bbbbvvvvbbbbbbbbbbbbvvvvbbbbbbbbbbbbvvvvbbbbbbbbbbbbvvvvbbbbbbbb",
"bbbbvvvvbbbbbbbbbbbbvvvvbbbbbbbbbbbbvvvvbbbbbbbbbbbbvvvvbbbbbbbb",
"bbbbvvvvbbbbbbbbbbbbvvvvbbbbbbbbbbbbvvvvbbbbbbbbbbbbvvvvbbbbbbbb",
"bbbbvvvvbbbbbbbbbbbbvvvvbbbbbbbbbbbbvvvvbbbbbbbbbbbbvvvvbbbbbbbb"
};
