/* XPM */
static char *result[] = {
/* columns rows colors chars-per-pixel */
"64 64 11 1 ",
"  c black",
". c #825B15",
"X c #A2676B",
"o c #AD7A7E",
"O c #BB9D1B",
"+ c #A8862A",
"@ c #DE8B36",
"# c #D5B837",
"$ c #FFD000",
"% c #FFCF4D",
"& c #D5C57D",
/* pixels */
"ooooXXXXooooooooooooXXXXooooooooooooXXXXooooooooooooXXXXoooooooo",
"ooooXXXXooooooooooooXXXXooooooooooooXXXXooooooooooooXXXXoooooooo",
"ooooXXXXooooooooooooXXXXooooooooooooXXXXooooooooooooXXXXoooooooo",
"ooooXXXXooooooooooooXXXXooooooooooooXXXXooooooooooooXXXXoooooooo",
"ooooXXXXooooooooooooXXXXooooooooooooXXXXooooooooooooXXXXoooooooo",
"ooooXXXXooooooooooooXXXXooooooooooooXXXXooooooooooooXXXXoooooooo",
"ooooXXXXooooooooooooXXXXooooooooooooXXXXooooooooooooXXXXoooooooo",
"ooooXXXXooooooooooooXXXXooooooooooooXXXXooooooooooooXXXXoooooooo",
"ooooXXXXooooooooooooXXXXooooooooooooXXXXooooooooooooXXXXoooooooo",
"ooooXXXXooooooooooooXXXXooooooooooooXXXXooooooooooooXXXXoooooooo",
"ooooXXXXooooooooooooXXXXoooo          XXooooooooooooXXXXoooooooo",
"ooooXXXXooooooooooooXXXXoooo          XXooooooooooooXXXXoooooooo",
"ooooXXXXooooooooooooXXXXoo  &&&&&&&&&&      ooooooooXXXXoooooooo",
"ooooXXXXooooooooooooXXXXoo  &&&&&&&&&&      ooooooooXXXXoooooooo",
"ooooXXXXooooooooooooXX    &&####......&&&&&&      ooXXXXoooooooo",
"ooooXXXXooooooooooooXX    &&####......&&&&&&      ooXXXXoooooooo",
"ooooXXXXoooooooooooo  &&&&######..@@@@..####&&&&&&    XXoooooooo",
"ooooXXXXoooooooooooo  &&&&######..@@@@..####&&&&&&    XXoooooooo",
"ooooXXXXoooooooo    &&....########....############&&&&    oooooo",
"ooooXXXXoooooooo    &&....########....############&&&&    oooooo",
"ooooXXXXoooooo  &&&&..@@@@..################OOOOOOOOOOOOOO  oooo",
"ooooXXXXoooooo  &&&&..@@@@..################OOOOOOOOOOOOOO  oooo",
"ooooXXXXoo    &&######......####OOOOOOOOOOOO              %%  oo",
"ooooXXXXoo    &&######......####OOOOOOOOOOOO              %%  oo",
"ooooXXXX  &&&&####OOOOOOOOOOOOOO            %%%%%%%%%%%%%%$$  oo",
"ooooXXXX  &&&&####OOOOOOOOOOOOOO            %%%%%%%%%%%%%%$$  oo",
"ooooXX  &&OOOOOOOO              %%%%%%%%%%%%$$$$$$$$$$$$$$$$  oo",
"ooooXX  &&OOOOOOOO              %%%%%%%%%%%%$$$$$$$$$$$$$$$$  oo",
"oooo              %%%%%%%%%%%%%%$$$$........$$$$$$$$$$$$$$$$  oo",
"oooo              %%%%%%%%%%%%%%$$$$........$$$$$$$$$$$$$$$$  oo",
"oooo  %%%%%%%%%%%%......$$$$$$$$$$..@@@@@@@@..$$$$$$$$$$....  oo",
"oooo  %%%%%%%%%%%%......$$$$$$$$$$..@@@@@@@@..$$$$$$$$$$....  oo",
"oooo  $$$$$$$$$$..@@@@..$$$$$$$$$$..@@@@@@@@..$$$$$$$$....@@  oo",
"oooo  $$$$$$$$$$..@@@@..$$$$$$$$$$..@@@@@@@@..$$$$$$$$....@@  oo",
"oooo  $$$$$$$$..@@@@@@@@..$$$$$$$$$$..@@@@@@..$$$$$$$$..@@@@  oo",
"oooo  $$$$$$$$..@@@@@@@@..$$$$$$$$$$..@@@@@@..$$$$$$$$..@@@@  oo",
"oooo  $$$$$$$$..@@@@@@@@..$$$$$$$$$$$$......$$$$$$$$$$..@@@@  oo",
"oooo  $$$$$$$$..@@@@@@@@..$$$$$$$$$$$$......$$$$$$$$$$..@@@@  oo",
"oooo  $$$$$$$$....@@@@..$$$$$$$$$$$$$$$$$$$$$$$$$$$$$$..@@@@  oo",
"oooo  $$$$$$$$....@@@@..$$$$$$$$$$$$$$$$$$$$$$$$$$$$$$..@@@@  oo",
"oooo  $$$$$$$$$$......$$$$$$$$$$$$$$$$$$$$$$$$$$$$$$$$$$....  oo",
"oooo  $$$$$$$$$$......$$$$$$$$$$$$$$$$$$$$$$$$$$$$$$$$$$....  oo",
"oooo  $$$$$$$$$$$$$$$$$$$$$$$$$$$$$$$$$$$$$$$$$$$$$$$$$$$$$$  oo",
"oooo  $$$$$$$$$$$$$$$$$$$$$$$$$$$$$$$$$$$$$$$$$$$$$$$$$$$$$$  oo",
"oooo  $$$$$$$$$$$$$$$$$$$$$$$$$$$$$$$$$$$$$$......$$$$$$$$$$  oo",
"oooo  $$$$$$$$$$$$$$$$$$$$$$$$$$$$$$$$$$$$$$......$$$$$$$$$$  oo",
"oooo  $$$$$$$$$$$$$$$$$$$$$$$$$$$$$$$$$$$$..@@@@@@..$$$$++++  oo",
"oooo  $$$$$$$$$$$$$$$$$$$$$$$$$$$$$$$$$$$$..@@@@@@..$$$$++++  oo",
"oooo  $$$$$$$$$$$$$$......$$$$$$$$$$$$$$$$..@@@@@@..++++      oo",
"oooo  $$$$$$$$$$$$$$......$$$$$$$$$$$$$$$$..@@@@@@..++++      oo",
"oooo  $$$$$$$$$$$$....@@@@..$$$$++++++++++..            oooooooo",
"oooo  $$$$$$$$$$$$....@@@@..$$$$++++++++++..            oooooooo",
"oooo  $$$$$$$$$$$$..@@@@@@..++++            ooooooooXXXXoooooooo",
"oooo  $$$$$$$$$$$$..@@@@@@..++++            ooooooooXXXXoooooooo",
"oooo  ++++++++++++              ooooXXXXooooooooooooXXXXoooooooo",
"oooo  ++++++++++++              ooooXXXXooooooooooooXXXXoooooooo",
"ooooXX            ooXXXXooooooooooooXXXXooooooooooooXXXXoooooooo",
"ooooXX            ooXXXXooooooooooooXXXXooooooooooooXXXXoooooooo",
"ooooXXXXooooooooooooXXXXooooooooooooXXXXooooooooooooXXXXoooooooo",
"ooooXXXXooooooooooooXXXXooooooooooooXXXXooooooooooooXXXXoooooooo",
"ooooXXXXooooooooooooXXXXooooooooooooXXXXooooooooooooXXXXoooooooo",
"ooooXXXXooooooooooooXXXXooooooooooooXXXXooooooooooooXXXXoooooooo",
"ooooXXXXooooooooooooXXXXooooooooooooXXXXooooooooooooXXXXoooooooo",
"ooooXXXXooooooooooooXXXXooooooooooooXXXXooooooooooooXXXXoooooooo"
};
