/* XPM */
static char *bf444c93800b4b35bee9509fc6dd014d8kyomTcNzoDDMEdf[] = {
/* columns rows colors chars-per-pixel */
"32 32 5 1 ",
"  c #004800",
". c #006300",
"X c #007800",
"o c #349D10",
"O c white",
/* pixels */
".o.o.o.o.o.o.o.o.o.o.o.o.o.o.o.o",
"o  XXXXXXXXXXXXXXXXXXXXXXXXXX  .",
". oooooooooooooooooooooooooooo o",
"oXoOOOOOOOOOOOOOOOOOOOOOOOOOOoX.",
".XoOOOOOOOOOOOOOOOOOOOOOOXOOOoXo",
"oXoOOOOOOOOOOOOOOOOOOOOOOOXOOoX.",
".XoOOXXXXXXXXXXXXXXXXXXXXXXXOoXo",
"oXoOOOOOOOOOOOOOOOOOOOOOOOXOOoX.",
".XoOOOOOOOOOOOOOOOOOOOOOOXOOOoXo",
"oXoOOOOOOOOOOOOOOOOOOOOOOOOOOoX.",
".XoOOOOXXXXXXXXXOOOOOOOOOOOOOoXo",
"oXoOOOOXOOOOOOOOOOOXXOOOOOOOOoX.",
".XoOOOOXOOOOOOOOOOOXOXOOOOOOOoXo",
"oXoOOOOXOOOOOOOOOOXXOXOOOOOOOoX.",
".XoOOOOXOOOOOOOOOOXOOXOOOOOOOoXo",
"oXoOOOOXOOOOOOOOOOXOOOXOOOOOOoX.",
".XoOOOOXOOOOOOOOOXOOOOXOOOOOOoXo",
"oXoOOOOXXXXXXOOOOXOOOOXOOOOOOoX.",
".XoOOOOXOOOOOOOOOXOOOOXOOOOOOoXo",
"oXoOOOOXOOOOOOOOOXXXXXXXOOOOOoX.",
".XoOOOXOOOOOOOOOXOOOOOOXOOOOOoXo",
"oXoOOOXOOOOOOOOOXOOOOOOOXOOOOoX.",
".XoOOOXOOOOOOOOOXOOOOOOOXOOOOoXo",
"oXoOOOXOOOOOOOOOXOOOOOOOXOOOOoX.",
".XoOOOXOOOOOOOOOXOOOOOOOXOOOOoXo",
"oXoOOXXOOOOOOOOOXOOOOOOOOXOOOoX.",
".XoOOOXXXXXXOOOOOOOOOOOOOOOOOoXo",
"oXoOOOOOOOOOOOOOOOOOOOOOOOOOOoX.",
".XoOOOOOOOOOOOOOOOOOOOOOOOOOOoXo",
"o oooooooooooooooooooooooooooo .",
".  XXXXXXXXXXXXXXXXXXXXXXXXXX  o",
"o.o.o.o.o.o.o.o.o.o.o.o.o.o.o.o."
};
