/* XPM */
static char *result[] = {
/* columns rows colors chars-per-pixel */
"64 64 73 1 ",
"  c #010101",
". c #0B0100",
"X c #050906",
"o c #02030A",
"O c #0A000C",
"+ c #01090B",
"@ c #090B0D",
"# c #110200",
"$ c #120902",
"% c #573D30",
"& c #5E3C30",
"* c #5E3C3A",
"= c #653B2E",
"- c #693D2D",
"; c #663C31",
": c #693D32",
"> c #623C3B",
", c #6A3F39",
"< c #703B33",
"1 c #64402E",
"2 c #644033",
"3 c #694033",
"4 c #64413C",
"5 c #976A2F",
"6 c #9E6633",
"7 c #976934",
"8 c #9C6B33",
"9 c #9E6D3B",
"0 c #987533",
"q c #9F723B",
"w c #A76B2F",
"e c #A56C35",
"r c #A26D3D",
"t c #A47331",
"y c #A1713C",
"u c #AB743C",
"i c #8E6844",
"p c #976D43",
"a c #9D6E43",
"s c #966948",
"d c #9D744B",
"f c #917452",
"g c #9C7556",
"h c #A26D42",
"j c #A87341",
"k c #A0754A",
"l c #A4784B",
"z c #A2676B",
"x c #AD7A7E",
"c c #BFA362",
"v c #C3A452",
"b c #C5A55A",
"n c #CDA75E",
"m c #C5AB5C",
"M c #CBAD5D",
"N c #D0B15E",
"B c #C5A960",
"V c #CBAD67",
"C c #CFA76A",
"Z c #C4AC6C",
"A c #CCAB69",
"S c #D1AB65",
"D c #D3AC6B",
"F c #CBB061",
"G c #CEB068",
"H c #D3B46F",
"J c #CDAB72",
"K c #D3B670",
"L c #BEB282",
"P c #CDB786",
"I c #CFB985",
"U c #CFB988",
"Y c #D2B887",
/* pixels */
"xxxxzzzzxxxxxxxxxxxxzzzzxxxxxxxxxxxxzzzzxxxxxxxxxxxxzzzzxxxxxxxx",
"xxxxzzzzxxxxxxxxxxxxzzzzxxxxxxxxxxxxzzzzxxxxxxxxxxxxzzzzxxxxxxxx",
"xxxxzzzzxxxxxxxxxxxxzzzzxxxxxxxxxxxxzzzzxxxxxxxxxxxxzzzzxxxxxxxx",
"xxxxzzzzxxxxxxxxxxxxzzzzxxxxxxxxxxxxzzzzxxxxxxxxxxxxzzzzxxxxxxxx",
"xxxxzzzzxxxxxxxxxxxxzzzzxxxxxxxxxxxxzzzzxxxxxxxxxxxxzzzzxxxxxxxx",
"xxxxzzzzxxxxxxxxxxxxzzzzxxxxxxxxxxxxzzzzxxxxxxxxxxxxzzzzxxxxxxxx",
"xxxxzzzzxxxxxxxxxxxxzzzzxxxxxxxxxxxxzzzzxxxxxxxxxxxxzzzzxxxxxxxx",
"xxxxzzzzxxxxxxxxxxxxzzzzxxxxxxxxxxxxzzzzxxxxxxxxxxxxzzzzxxxxxxxx",
"xxxxzzzzxxxxxxxxxxxxzzzzxxxxxxxxxxxxzzzzxxxxxxxxxxxxzzzzxxxxxxxx",
"xxxxzzzzxxxxxxxxxxxxzzzzxxxxxxxxxxxxzzzzxxxxxxxxxxxxzzzzxxxxxxxx",
"xxxxzzzzxxxxxxxxxxxxzzzzxxxxxxxxxxxxzzzzxxxxxxxxxxxxzzzzxxxxxxxx",
"xxxxzzzzxxxxxxxxxxxxzzzzxxxxxxxxxxxxzzzzxxxxxxxxxxxxzzzzxxxxxxxx",
"xxxxzzzzxxxxxxxxxxxxzzzzxxxxxxxxxxxxzzzzxxxxxxxxxxxxzzzzxxxxxxxx",
"xxxxzzzzxxxxxxxxxxxxzzzzxxxxxxxxxxxxzzzzxxxxxxxxxxxxzzzzxxxxxxxx",
"xxxxzzzzxxxxxxxxxxxxzzzzxxxxxxxxxxxxzzzzxxxxxxxxxxxxzzzzxxxxxxxx",
"xxxxzzzzxxxxxxxxxxxxzzzzxxXXX    X  XXXzxxxxxxxxxxxxzzzzxxxxxxxx",
"xxxxzzzzxxxxxxxxxxxxzzzz .2=& ZF 1<Xh9qo xxxxxxxxxxxzzzzxxxxxxxx",
"xxxxzzzzxxxxxxxxxxxx    ;%.  VVV :::*..8y   @xxxxxxxzzzzxxxxxxxx",
"xxxxzzzzxxxxxxxxxxx.;1=; .VFVVVV ;::;1=o.rrrg@xxxxxxzzzzxxxxxxxx",
"xxxxzzzzxxxxxxxxX  2;>. VVVVVVVV ::::::;2 #Vyh o xxxzzzzxxxxxxxx",
"xxxxzzzzxxxxxxx ;=;; .FVVVVVVVVV :;;::::;== .j9rioxxzzzzxxxxxxxx",
"xxxxzzzzxxxx . =2&  SVVVAFVVVVVV ,::::::,:;;24.Hrr   zzzxxxxxxxx",
"xxxxzzzzxx  -:,,X.VVVVVAVAFAVVVF :::::=:::;;-;= .ttuh zzxxxxxxxx",
"xxxxzzzzxx   . ...VVDVVVAVAFZVVV :=:=::=:=:=,== $   .. zxxxxxxxx",
"xxxxzzzzxxxxxx ay  VVVVVVVVVVVVV ::=::===;;;2 o5VM xzzzzxxxxxxxx",
"xxxxzzzzxxxxx parr8 ..VDVVVVVVVV ;:=::=:=;;.#88VVHL zzzzxxxxxxxx",
"xxxxzzzzxxxxx 8rrrr9.. AVVAVVVVV ;;:=:==== .8VVVVVZXzzzzxxxxxxxx",
"xxxxzzzzxxxx rrrrrrrrhV mAVVVVVV ;:;:==<  8VVVVVVVVn zzzxxxxxxxx",
"xxxxzzzzxxxx.y9rrrrrrer6##  VAVV ,;;=  .8VVSVVVAVVVV zzzxxxxxxxx",
"xxxxzzzzxxx fhryrrrrrhrrry9.oVVV ;;; kyAVVSVAVVVVVVA.zzzxxxxxxxx",
"xxxxzzzzxxx re9rrrrrrrrrrrr9C$     $0VVVVAFAFAVVVVVVVXzzxxxxxxxx",
"xxxxzzzzxxxx .ryrrrrrrrrrrrrr99.  VVVVVVAVAAVVVAVVDb zzzxxxxxxxx",
"xxxxzzzzxxxxxx  wrrrrhrrhyrrrre X VVVVVVVVVFAAVVAc  zzzzxxxxxxxx",
"xxxxzzzzxxxxxxx  .harrrrrrrrr9r  .CVVVVVCSVCVVAo. xxzzzzxxxxxxxx",
"xxxxzzzzxxxxxxx    derrrr9rhr9  .hXMAVVVVVVVK .rA xxzzzzxxxxxxxx",
"xxxxzzzzxxxxxxx      #aarrrrr.   99 VVVVVVVo.VVVV xxzzzzxxxxxxxx",
"xxxxzzzzxxxxxxx        drrrre   .r7 VVVVZ .7VVVIU xxzzzzxxxxxxxx",
"xxxxzzzzxxxxxxx ;%      ..rry    rh.AFVo.CAVHVVNF xxzzzzxxxxxxxx",
"xxxxzzzzxxxxxxx.;2&&&    .Og.    rrh. OsAVVVYV  A xxzzzzxxxxxxxx",
"xxxxzzzzxxxxxxx =;;-==;;;>  o    rr9ol5VVVNVP V G xxzzzzxxxxxxxx",
"xxxxzzzzxxxxxxx.;;;:=:=::;;::=;* VCVVVVVV.. P V V xxzzzzxxxxxxxx",
"xxxxzzzzxxxxxxx.2:3::::::::::::- VVVVVVV B  P  nV xxzzzzxxxxxxxx",
"xxxxzzzzxxxxxxxx..=;=:;-===:==== VVVVVVVo V mZDX.xxxzzzzxxxxxxxx",
"xxxxzzzzxxxxxxxxxx  ;=;:=====:=- VAVVVVV.bXVb  xxxxxzzzzxxxxxxxx",
"xxxxzzzzxxxxxxxxxxxx..;=;====-=- VVVVVVV@ JX xxxxxxxzzzzxxxxxxxx",
"xxxxzzzzxxxxxxxxxxxxzz  2;;,,=:- VAVAVVVv9 xxxxxxxxxzzzzxxxxxxxx",
"xxxxzzzzxxxxxxxxxxxxzzzz..=;==== VVVVFA.  xxxxxxxxxxzzzzxxxxxxxx",
"xxxxzzzzxxxxxxxxxxxxzzzzxxX &=:= VVGB Xzxxxxxxxxxxxxzzzzxxxxxxxx",
"xxxxzzzzxxxxxxxxxxxxzzzzxxxx .== F7. zzzxxxxxxxxxxxxzzzzxxxxxxxx",
"xxxxzzzzxxxxxxxxxxxxzzzzxxxxxx   .+xzzzzxxxxxxxxxxxxzzzzxxxxxxxx",
"xxxxzzzzxxxxxxxxxxxxzzzzxxxxxxxxxxxxzzzzxxxxxxxxxxxxzzzzxxxxxxxx",
"xxxxzzzzxxxxxxxxxxxxzzzzxxxxxxxxxxxxzzzzxxxxxxxxxxxxzzzzxxxxxxxx",
"xxxxzzzzxxxxxxxxxxxxzzzzxxxxxxxxxxxxzzzzxxxxxxxxxxxxzzzzxxxxxxxx",
"xxxxzzzzxxxxxxxxxxxxzzzzxxxxxxxxxxxxzzzzxxxxxxxxxxxxzzzzxxxxxxxx",
"xxxxzzzzxxxxxxxxxxxxzzzzxxxxxxxxxxxxzzzzxxxxxxxxxxxxzzzzxxxxxxxx",
"xxxxzzzzxxxxxxxxxxxxzzzzxxxxxxxxxxxxzzzzxxxxxxxxxxxxzzzzxxxxxxxx",
"xxxxzzzzxxxxxxxxxxxxzzzzxxxxxxxxxxxxzzzzxxxxxxxxxxxxzzzzxxxxxxxx",
"xxxxzzzzxxxxxxxxxxxxzzzzxxxxxxxxxxxxzzzzxxxxxxxxxxxxzzzzxxxxxxxx",
"xxxxzzzzxxxxxxxxxxxxzzzzxxxxxxxxxxxxzzzzxxxxxxxxxxxxzzzzxxxxxxxx",
"xxxxzzzzxxxxxxxxxxxxzzzzxxxxxxxxxxxxzzzzxxxxxxxxxxxxzzzzxxxxxxxx",
"xxxxzzzzxxxxxxxxxxxxzzzzxxxxxxxxxxxxzzzzxxxxxxxxxxxxzzzzxxxxxxxx",
"xxxxzzzzxxxxxxxxxxxxzzzzxxxxxxxxxxxxzzzzxxxxxxxxxxxxzzzzxxxxxxxx",
"xxxxzzzzxxxxxxxxxxxxzzzzxxxxxxxxxxxxzzzzxxxxxxxxxxxxzzzzxxxxxxxx",
"xxxxzzzzxxxxxxxxxxxxzzzzxxxxxxxxxxxxzzzzxxxxxxxxxxxxzzzzxxxxxxxx"
};
