/* XPM */
static char *_2d2f9a5d29e40cee5e2c691364a5351k2hASQhF8NXhSoFJ[] = {
/* columns rows colors chars-per-pixel */
"64 64 2 1 ",
"  c #A2676B",
". c #AD7A7E",
/* pixels */
"....    ............    ............    ............    ........",
"....    ............    ............    ............    ........",
"....    ............    ............    ............    ........",
"....    ............    ............    ............    ........",
"....    ............    ............    ............    ........",
"....    ............    ............    ............    ........",
"....    ............    ............    ............    ........",
"....    ............    ............    ............    ........",
"....    ............    ............    ............    ........",
"....    ............    ............    ............    ........",
"....    ............    ............    ............    ........",
"....    ............    ............    ............    ........",
"....    ............    ............    ............    ........",
"....    ............    ............    ............    ........",
"....    ............    ............    ............    ........",
"....    ............    ............    ............    ........",
"....    ............    ............    ............    ........",
"....    ............    ............    ............    ........",
"....    ............    ............    ............    ........",
"....    ............    ............    ............    ........",
"....    ............    ............    ............    ........",
"....    ............    ............    ............    ........",
"....    ............    ............    ............    ........",
"....    ............    ............    ............    ........",
"....    ............    ............    ............    ........",
"....    ............    ............    ............    ........",
"....    ............    ............    ............    ........",
"....    ............    ............    ............    ........",
"....    ............    ............    ............    ........",
"....    ............    ............    ............    ........",
"....    ............    ............    ............    ........",
"....    ............    ............    ............    ........",
"....    ............    ............    ............    ........",
"....    ............    ............    ............    ........",
"....    ............    ............    ............    ........",
"....    ............    ............    ............    ........",
"....    ............    ............    ............    ........",
"....    ............    ............    ............    ........",
"....    ............    ............    ............    ........",
"....    ............    ............    ............    ........",
"....    ............    ............    ............    ........",
"....    ............    ............    ............    ........",
"....    ............    ............    ............    ........",
"....    ............    ............    ............    ........",
"....    ............    ............    ............    ........",
"....    ............    ............    ............    ........",
"....    ............    ............    ............    ........",
"....    ............    ............    ............    ........",
"....    ............    ............    ............    ........",
"....    ............    ............    ............    ........",
"....    ............    ............    ............    ........",
"....    ............    ............    ............    ........",
"....    ............    ............    ............    ........",
"....    ............    ............    ............    ........",
"....    ............    ............    ............    ........",
"....    ............    ............    ............    ........",
"....    ............    ............    ............    ........",
"....    ............    ............    ............    ........",
"....    ............    ............    ............    ........",
"....    ............    ............    ............    ........",
"....    ............    ............    ............    ........",
"....    ............    ............    ............    ........",
"....    ............    ............    ............    ........",
"....    ............    ............    ............    ........"
};
