/* XPM */
static char *_d1ec3b9ea144e92e4d23f097c551b78zm4LFudS9HA4MH5L[] = {
/* columns rows colors chars-per-pixel */
"64 64 13 1 ",
"  c black",
". c #412A08",
"X c #795B2E",
"o c #515255",
"O c #9B7D52",
"+ c #A2676B",
"@ c #AD7A7E",
"# c #B79E7A",
"$ c #33408C",
"% c #5E6799",
"& c #8E8686",
"* c #C4C0C0",
"= c white",
/* pixels */
"@@@@++++@@@@@@@@@@@@++++@@@@@@@@@@@@++++@@@@@@@@@@@@++++@@@@@@@@",
"@@@@++++@@@@@@@@@@@@++++@@@@@@@@@@@@++++@@@@@@@@@@@@++++@@@@@@@@",
"@@@@++++@@@@@@@@@@@@++++@@@@@@@@@@@@++++@@@@@@@@@@@@++++@@@@@@@@",
"@@@@++++@@@@@@@@@@@@++++@@@@@@@@@@@@++++@@@@@@@@@@@@++++@@@@@@@@",
"@@@@++++@@@@@@@@@@@@++++@@@@@@@@@@@@++++@@@@@@@@@@@@++++@@@@@@@@",
"@@@@++++@@@@@@@@@@@@++++@@@@@@@@@@@@++++@@@@@@@@@@@@++++@@@@@@@@",
"@@@@++++@@@@@@@@@@@@++++@@@@@@@@@@@@++++@@@@@@@@@@@@++++@@@@@@@@",
"@@@@++++@@@@@@@@@@@@++++@@@@@@@@@@@@++++@@@@@@@@@@@@++++@@@@@@@@",
"@@@@++++@@@@@@@@@@@@++++@@@@@@@@@@@@++++@@@@@@@@@@@@++++@@@@@@@@",
"@@@@++++@@@@@@@@@@@@++++@@@@@@@@@@@@++++@@@@@@@@@@@@++++@@@@@@@@",
"@@@@++++@@@@@@@@@@    ++@@@@@@@@@@@@++++@@@@@@@@@@@@++++@@@@@@@@",
"@@@@++++@@@@@@@@@ &&&o   @@@@@@@@@@@++++@@@@@@@@@@@@++++@@@@@@@@",
"@@@@++++@@@@@@@@ &&o  &&& @@@@@@@@@@++++@@@@@@@@@@@@++++@@@@@@@@",
"@@@@++++@@@@@@@@ &o &o   o @@@@@@@@@++++@@@@@@@@@@@@++++@@@@@@@@",
"@@@@++++@@@@@@@@ o &o OO o @@@@@@@@@++++@@@@@@@@@@@@++++@@@@@@@@",
"@@@@++++@@@@@@    && O#O o @@@@@@@@@++++@@@@@@@@@@@@++++@@@@@@@@",
"@@@@++++@@@@  &&&&&& ##O o @@@@@@@@@++++@@@@@@@@@@@@++++@@@@@@@@",
"@@@@++++@@  &&&&&&&& #O oo @@@@@@@@@++++@@@@@@@@@@@@++++@@@@@@@@",
"@@@@++++@ &&&&&&&&&& #O o @@@@@@@@@@++++@@@@@@@@@@@@++++@@@@@@@@",
"@@@@++++ &&   &&&&&& O oo @@@@@@@@@@++++@@@@@@@@@@@@++++@@@@@@@@",
"@@@@++  && =.. &&&&&& oo @@@@@@@@@@@++++@@@@@@@@@@@@++++@@@@@@@@",
"@@@@  &&&& ..X &&&&&&&  @@@        @++++@@@@@@@@@@@@++++@@@@@@@@",
"@@@ O &&&&& XX &&&&&&      &&&&&&&&  +++@@@@@@@@@@@@++++@@@@@@@@",
"@@@  &&&&&&&  &&&&&&oo&&&&&&&&&&&&&&& ++@@@@@@@@@@@@++++@@@@@@@@",
"@@@ o&&&&&&&&&&&&&&&oo&&&&&&&&&&&&&&&& +@@@@@@@@@@@@++++@@@@@@@@",
"@@@@ o&&&&&&&&&&&&&oo&&&&&&&&&&&&&&&&&& @@@@@@@@@@@@++++@@@@@@@@",
"@@@@+  o&& &&&&&&ooo&&&&&&&&&&&&&&&&&&&& @@@@@@@@@@@++++@@@@@@@@",
"@@@@+ *   &&&&&&oo o&&&&&&&&&&&&&&&&&&&&o @@@@@@@@@@++++@@@@@@@@",
"@@@@+ = &&ooooooo oo&&&&&&&&&&&&&&&&&&&&& @@@@@@@@@@++++@@@@@@@@",
"@@@@+  +         oo&&&&&&&&&&&&&&&&&&&&&&o @@@@@@@@@++++@@@@@@@@",
"@@@@++++@@@@@@ & &&&&&&&&&&&&&&&&&&&&&&&&o @@@@@@@@@++++@@   @@@",
"@@@@++++@@@@@@ & &&&&&oo&&&&&&&oo&&&&&&&&oo @@@@@@@@++++  %%%  @",
"@@@@++++@@@@@@ & &&&&&ooo&&&&&ooo&&&&&&&&&o @@@@@@@@+++ %%   %% ",
"@@@@++++@@@@@@@ & &&&&o ooooooooo&&&&&&&&&o @@@@@@@@++ %  @@@   ",
"@@@@++++@@@@    & &&&oo         o&&&&&&&&&oo @@@@@@@+ % @@@@@@@@",
"@@@@++++@@  &&&    &ooo @@@@ ooo o&&&&&&&&oo @@@@@@@ % +@@@@@@@@",
"@@@@++++@ &&   &&&oo   +@@@@ &oo oo&&&&&&&oo @@@@@@ % ++@@@@@@@@",
"@@@@++++@ & &&&oo   ++++@@@@ &&oo oo&&&&&ooo  @@@  % +++@@@@@@@@",
"@@@@++++@   &    @@@++++@@@@@ &ooo  oo&&ooo $$   $% ++++@@@@@@@@",
"@@@@++++@@@   @@@@@@++++@@@@@ &&oo  ooooooo   $$$  @++++@@@@@@@@",
"@@@@++++@@@@@@@@@@@@++++@@@@@@ &&o @  ooooo @@   @@@++++@@@@@@@@",
"@@@@++++@@@@@@@@@@@@++++@@@@@@@ &o @++  oooo @@@@@@@++++@@@@@@@@",
"@@@@++++@@@@@@@@@@@@++++@@@@@@@@ o @++++   oo @@@@@@++++@@@@@@@@",
"@@@@++++@@@@@@@@@@@@++++@@@@@@@@ o @++++@@ oo @@@@@@++++@@@@@@@@",
"@@@@++++@@@@@@@@@@@@++++@@@@@@  &o @++++@@ oo @@@@@@++++@@@@@@@@",
"@@@@++++@@@@@@@@@@@@++++@@@   &&  @@++++@@ &o @@@@@@++++@@@@@@@@",
"@@@@++++@@@@@@@@@@@@++++@@ &&&  @@@@++++@@ & @@@@@@@++++@@@@@@@@",
"@@@@++++@@@@@@@@@@@@++++@@    @@@@@@++++@ &o @@@@@@@++++@@@@@@@@",
"@@@@++++@@@@@@@@@@@@++++@@@@@@@@@@@@++++ &o @@@@@@@@++++@@@@@@@@",
"@@@@++++@@@@@@@@@@@@++++@@@@@@@@@@@@+++ &o @@@@@@@@@++++@@@@@@@@",
"@@@@++++@@@@@@@@@@@@++++@@@@@@@@@@@@+++   @@@@@@@@@@++++@@@@@@@@",
"@@@@++++@@@@@@@@@@@@++++@@@@@@@@@@@@++++@@@@@@@@@@@@++++@@@@@@@@",
"@@@@++++@@@@@@@@@@@@++++@@@@@@@@@@@@++++@@@@@@@@@@@@++++@@@@@@@@",
"@@@@++++@@@@@@@@@@@@++++@@@@@@@@@@@@++++@@@@@@@@@@@@++++@@@@@@@@",
"@@@@++++@@@@@@@@@@@@++++@@@@@@@@@@@@++++@@@@@@@@@@@@++++@@@@@@@@",
"@@@@++++@@@@@@@@@@@@++++@@@@@@@@@@@@++++@@@@@@@@@@@@++++@@@@@@@@",
"@@@@++++@@@@@@@@@@@@++++@@@@@@@@@@@@++++@@@@@@@@@@@@++++@@@@@@@@",
"@@@@++++@@@@@@@@@@@@++++@@@@@@@@@@@@++++@@@@@@@@@@@@++++@@@@@@@@",
"@@@@++++@@@@@@@@@@@@++++@@@@@@@@@@@@++++@@@@@@@@@@@@++++@@@@@@@@",
"@@@@++++@@@@@@@@@@@@++++@@@@@@@@@@@@++++@@@@@@@@@@@@++++@@@@@@@@",
"@@@@++++@@@@@@@@@@@@++++@@@@@@@@@@@@++++@@@@@@@@@@@@++++@@@@@@@@",
"@@@@++++@@@@@@@@@@@@++++@@@@@@@@@@@@++++@@@@@@@@@@@@++++@@@@@@@@",
"@@@@++++@@@@@@@@@@@@++++@@@@@@@@@@@@++++@@@@@@@@@@@@++++@@@@@@@@",
"@@@@++++@@@@@@@@@@@@++++@@@@@@@@@@@@++++@@@@@@@@@@@@++++@@@@@@@@"
};
