/* XPM */
static char *result[] = {
/* columns rows colors chars-per-pixel */
"64 64 13 1 ",
"  c black",
". c #412A08",
"X c #795B2E",
"o c #515255",
"O c #9B7D52",
"+ c #A2676B",
"@ c #AD7A7E",
"# c #B79E7A",
"$ c #33408C",
"% c #5E6799",
"& c #8E8686",
"* c #C4C0C0",
"= c white",
/* pixels */
"@@@@++++@@@@@@@@@@@@++++@@@@@@@@@@@@++++@@@@@@@@@@@@++++@@@@@@@@",
"@@@@++++@@@@@@@@@@@@++++@@@@@@@@@@@@++++@@@@@@@@@@@@++++@@@@@@@@",
"@@@@++++@@@@@@@@@@@@++++@@@@@@@@@@@@++++@@@@@@@@@@@@++++@@@@@@@@",
"@@@@++++@@@@@@@@@@@@++++@@@@@@@@@@@@++++@@@@@@@@@@@@++++@@@@@@@@",
"@@@@++++@@@@@@@@@@@@++++@@@@@@@@@@@@++++@@@@@@@@@@@@++++@@@@@@@@",
"@@@@++++@@@@@@@@@@@@++++@@@@@@@@@@@@++++@@@@@@@@@@@@++++@@@@@@@@",
"@@@@++++@@@@@@@@@@@@++++@@@@@@@@@@@@++++@@@@@@@@@@@@++++@@@@@@@@",
"@@@@++++@@@@@@@@@@@@++++@@@@@@@@@@@@++++@@@@@@@@@@@@++++@@@@@@@@",
"@@@@++++@@@@@@@@@@@@++++@@@@@@@@@@@@++++@@@@@@@@@@@@++++@@@@@@@@",
"@@@@++++@@@@@@@@@@@@++++@@@@@@@@@@@@++++@@@@@@@@@@@@++++@@@@@@@@",
"@@@@++++@@@@@@@@@@@@++++@@@@@@@@@@@@++++@@    @@@@@@++++@@@@@@@@",
"@@@@++++@@@@@@@@@@@@++++@@@@@@@@@@@@+++   o&&& @@@@@++++@@@@@@@@",
"@@@@++++@@@@@@@@@@@@++++@@@@@@@@@@@@++ &&&  o&& @@@@++++@@@@@@@@",
"@@@@++++@@@@@@@@@@@@++++@@@@@@@@@@@@+ o   o& o& @@@@++++@@@@@@@@",
"@@@@++++@@@@@@@@@@@@++++@@@@@@@@@@@@+ o OO o& o @@@@++++@@@@@@@@",
"@@@@++++@@@@@@@@@@@@++++@@@@@@@@@@@@+ o O#O &&    @@++++@@@@@@@@",
"@@@@++++@@@@@@@@@@@@++++@@@@@@@@@@@@+ o O## &&&&&&  ++++@@@@@@@@",
"@@@@++++@@@@@@@@@@@@++++@@@@@@@@@@@@+ oo O# &&&&&&&&  ++@@@@@@@@",
"@@@@++++@@@@@@@@@@@@++++@@@@@@@@@@@@++ o O# &&&&&&&&&& +@@@@@@@@",
"@@@@++++@@@@@@@@@@@@++++@@@@@@@@@@@@++ oo O &&&&&&   && @@@@@@@@",
"@@@@++++@@@@@@@@@@@@++++@@@@@@@@@@@@+++ oo &&&&&& ..= &&  @@@@@@",
"@@@@++++@@@@@@@@@@@@++++@@@@@        +++  &&&&&&& X.. &&&&  @@@@",
"@@@@++++@@@@@@@@@@@@++++@@@  &&&&&&&&      &&&&&& XX &&&&& O @@@",
"@@@@++++@@@@@@@@@@@@++++@@ &&&&&&&&&&&&&&&oo&&&&&&  &&&&&&&  @@@",
"@@@@++++@@@@@@@@@@@@++++@ &&&&&&&&&&&&&&&&oo&&&&&&&&&&&&&&&o @@@",
"@@@@++++@@@@@@@@@@@@++++ &&&&&&&&&&&&&&&&&&oo&&&&&&&&&&&&&o @@@@",
"@@@@++++@@@@@@@@@@@@+++ &&&&&&&&&&&&&&&&&&&&ooo&&&&&& &&o  @@@@@",
"@@@@++++@@@@@@@@@@@@++ o&&&&&&&&&&&&&&&&&&&&o oo&&&&&&   * @@@@@",
"@@@@++++@@@@@@@@@@@@++ &&&&&&&&&&&&&&&&&&&&&oo ooooooo&& = @@@@@",
"@@@@++++@@@@@@@@@@@@+ o&&&&&&&&&&&&&&&&&&&&&&oo         @  @@@@@",
"@@@   ++@@@@@@@@@@@@+ o&&&&&&&&&&&&&&&&&&&&&&&& & @@++++@@@@@@@@",
"@  %%%  @@@@@@@@@@@@ oo&&&&&&&&oo&&&&&&&oo&&&&& & @@++++@@@@@@@@",
" %%   %% @@@@@@@@@@@ o&&&&&&&&&ooo&&&&&ooo&&&&& & @@++++@@@@@@@@",
"   @++  % @@@@@@@@@@ o&&&&&&&&&ooooooooo o&&&& & @@@++++@@@@@@@@",
"@@@@++++ % @@@@@@@@ oo&&&&&&&&&o         oo&&& &    ++++@@@@@@@@",
"@@@@++++@ % @@@@@@@ oo&&&&&&&&o ooo ++++ ooo&    &&&  ++@@@@@@@@",
"@@@@++++@@ % @@@@@@ oo&&&&&&&oo oo& ++++@   oo&&&   && +@@@@@@@@",
"@@@@++++@@@ %  @@@  ooo&&&&&oo oo&& ++++@@@@   oo&&& & +@@@@@@@@",
"@@@@++++@@@@ %$   $$ ooo&&oo  ooo& @++++@@@@@@@    &   +@@@@@@@@",
"@@@@++++@@@@@  $$$   ooooooo  oo&& @++++@@@@@@@@@@   +++@@@@@@@@",
"@@@@++++@@@@@@@   @@ ooooo  @ o&& @@++++@@@@@@@@@@@@++++@@@@@@@@",
"@@@@++++@@@@@@@@@@@ oooo  @@@ o& @@@++++@@@@@@@@@@@@++++@@@@@@@@",
"@@@@++++@@@@@@@@@@ oo   @@@@@ o @@@@++++@@@@@@@@@@@@++++@@@@@@@@",
"@@@@++++@@@@@@@@@@ oo ++@@@@@ o @@@@++++@@@@@@@@@@@@++++@@@@@@@@",
"@@@@++++@@@@@@@@@@ oo ++@@@@@ o&  @@++++@@@@@@@@@@@@++++@@@@@@@@",
"@@@@++++@@@@@@@@@@ o& ++@@@@@@  &&   +++@@@@@@@@@@@@++++@@@@@@@@",
"@@@@++++@@@@@@@@@@@ & ++@@@@@@@@  &&& ++@@@@@@@@@@@@++++@@@@@@@@",
"@@@@++++@@@@@@@@@@@ o& +@@@@@@@@@@    ++@@@@@@@@@@@@++++@@@@@@@@",
"@@@@++++@@@@@@@@@@@@ o& @@@@@@@@@@@@++++@@@@@@@@@@@@++++@@@@@@@@",
"@@@@++++@@@@@@@@@@@@+ o& @@@@@@@@@@@++++@@@@@@@@@@@@++++@@@@@@@@",
"@@@@++++@@@@@@@@@@@@++   @@@@@@@@@@@++++@@@@@@@@@@@@++++@@@@@@@@",
"@@@@++++@@@@@@@@@@@@++++@@@@@@@@@@@@++++@@@@@@@@@@@@++++@@@@@@@@",
"@@@@++++@@@@@@@@@@@@++++@@@@@@@@@@@@++++@@@@@@@@@@@@++++@@@@@@@@",
"@@@@++++@@@@@@@@@@@@++++@@@@@@@@@@@@++++@@@@@@@@@@@@++++@@@@@@@@",
"@@@@++++@@@@@@@@@@@@++++@@@@@@@@@@@@++++@@@@@@@@@@@@++++@@@@@@@@",
"@@@@++++@@@@@@@@@@@@++++@@@@@@@@@@@@++++@@@@@@@@@@@@++++@@@@@@@@",
"@@@@++++@@@@@@@@@@@@++++@@@@@@@@@@@@++++@@@@@@@@@@@@++++@@@@@@@@",
"@@@@++++@@@@@@@@@@@@++++@@@@@@@@@@@@++++@@@@@@@@@@@@++++@@@@@@@@",
"@@@@++++@@@@@@@@@@@@++++@@@@@@@@@@@@++++@@@@@@@@@@@@++++@@@@@@@@",
"@@@@++++@@@@@@@@@@@@++++@@@@@@@@@@@@++++@@@@@@@@@@@@++++@@@@@@@@",
"@@@@++++@@@@@@@@@@@@++++@@@@@@@@@@@@++++@@@@@@@@@@@@++++@@@@@@@@",
"@@@@++++@@@@@@@@@@@@++++@@@@@@@@@@@@++++@@@@@@@@@@@@++++@@@@@@@@",
"@@@@++++@@@@@@@@@@@@++++@@@@@@@@@@@@++++@@@@@@@@@@@@++++@@@@@@@@",
"@@@@++++@@@@@@@@@@@@++++@@@@@@@@@@@@++++@@@@@@@@@@@@++++@@@@@@@@"
};
