/* XPM */
static char *result[] = {
/* columns rows colors chars-per-pixel */
"64 64 5 1 ",
"  c #6D6048",
". c #9F7D45",
"X c #AD7A7E",
"o c #A88B62",
"O c #D1AB74",
/* pixels */
"XXXX........................................................XXXX",
"XXXX........................................................XXXX",
"XXXX........................................................XXXX",
"XXXX........................................................XXXX",
"....OOOOOOOOOOOOOOOOOOOOOOOOOOOOOOOOOOOOOOOOOOOOOOOOOOOOOOOO....",
"....OOOOOOOOOOOOOOOOOOOOOOOOOOOOOOOOOOOOOOOOOOOOOOOOOOOOOOOO....",
"....OOOOOOOOOOOOOOOOOOOOOOOOOOOOOOOOOOOOOOOOOOOOOOOOOOOOOOOO....",
"....OOOOOOOOOOOOOOOOOOOOOOOOOOOOOOOOOOOOOOOOOOOOOOOOOOOOOOOO....",
"....OOOOOOOOOOOOOOOOOOOOOOOOOOOOOOOOOOOOOOOOOOOOOOOOOOOOOOOO....",
"....OOOOOOOOOOOOOOOOOOOOOOOOOOOOOOOOOOOOOOOOOOOOOOOOOOOOOOOO....",
"....OOOOOOOOOOOOOOOOOOOOOOOOOOOOOOOOOOOOOOOOOOOOOOOOOOOOOOOO....",
"....OOOOOOOOOOOOOOOOOOOOOOOOOOOOOOOOOOOOOOOOOOOOOOOOOOOOOOOO....",
"....OOOOOOOO........................................OOOOOOOO....",
"....OOOOOOOO........................................OOOOOOOO....",
"....OOOOOOOO........................................OOOOOOOO....",
"....OOOOOOOO........................................OOOOOOOO....",
"....OOOOOOOO....oooooooo    oooooooo    oooooooo....OOOOOOOO....",
"....OOOOOOOO....oooooooo    oooooooo    oooooooo....OOOOOOOO....",
"....OOOOOOOO....oooooooo    oooooooo    oooooooo....OOOOOOOO....",
"....OOOOOOOO....oooooooo    oooooooo    oooooooo....OOOOOOOO....",
"....OOOOOOOO....ooooOOOO....OOOOOOOO....OOOOoooo....OOOOOOOO....",
"....OOOOOOOO....ooooOOOO....OOOOOOOO....OOOOoooo....OOOOOOOO....",
"....OOOOOOOO....ooooOOOO....OOOOOOOO....OOOOoooo....OOOOOOOO....",
"....OOOOOOOO....ooooOOOO....OOOOOOOO....OOOOoooo....OOOOOOOO....",
"....OOOOOOOO....ooooOOOO....OOOOOOOO....OOOOoooo....OOOOOOOO....",
"....OOOOOOOO....ooooOOOO....OOOOOOOO....OOOOoooo....OOOOOOOO....",
"....OOOOOOOO....ooooOOOO....OOOOOOOO....OOOOoooo....OOOOOOOO....",
"....OOOOOOOO....ooooOOOO....OOOOOOOO....OOOOoooo....OOOOOOOO....",
"....OOOOOOOO....ooooOOOO....OOOOOOOO....OOOOoooo....OOOOOOOO....",
"....OOOOOOOO....ooooOOOO....OOOOOOOO....OOOOoooo....OOOOOOOO....",
"....OOOOOOOO....ooooOOOO....OOOOOOOO....OOOOoooo....OOOOOOOO....",
"....OOOOOOOO....ooooOOOO....OOOOOOOO....OOOOoooo....OOOOOOOO....",
"....OOOOOOOO....ooooOOOO....OOOOOOOO....OOOOoooo....OOOOOOOO....",
"....OOOOOOOO....ooooOOOO....OOOOOOOO....OOOOoooo....OOOOOOOO....",
"....OOOOOOOO....ooooOOOO....OOOOOOOO....OOOOoooo....OOOOOOOO....",
"....OOOOOOOO....ooooOOOO....OOOOOOOO....OOOOoooo....OOOOOOOO....",
"....OOOOOOOO....ooooOOOO....OOOOOOOO....OOOOoooo....OOOOOOOO....",
"....OOOOOOOO....ooooOOOO....OOOOOOOO....OOOOoooo....OOOOOOOO....",
"....OOOOOOOO....ooooOOOO....OOOOOOOO....OOOOoooo....OOOOOOOO....",
"....OOOOOOOO....ooooOOOO....OOOOOOOO....OOOOoooo....OOOOOOOO....",
"....OOOOOOOO....ooooOOOO....OOOOOOOO....OOOOoooo....OOOOOOOO....",
"....OOOOOOOO....ooooOOOO....OOOOOOOO....OOOOoooo....OOOOOOOO....",
"....OOOOOOOO....ooooOOOO....OOOOOOOO....OOOOoooo....OOOOOOOO....",
"....OOOOOOOO....ooooOOOO....OOOOOOOO....OOOOoooo....OOOOOOOO....",
"....OOOOOOOO....oooooooo    oooooooo    oooooooo....OOOOOOOO....",
"....OOOOOOOO....oooooooo    oooooooo    oooooooo....OOOOOOOO....",
"....OOOOOOOO....oooooooo    oooooooo    oooooooo....OOOOOOOO....",
"....OOOOOOOO....oooooooo    oooooooo    oooooooo....OOOOOOOO....",
"....OOOOOOOO........................................OOOOOOOO....",
"....OOOOOOOO........................................OOOOOOOO....",
"....OOOOOOOO........................................OOOOOOOO....",
"....OOOOOOOO........................................OOOOOOOO....",
"....OOOOOOOOOOOOOOOOOOOOOOOOOOOOOOOOOOOOOOOOOOOOOOOOOOOOOOOO....",
"....OOOOOOOOOOOOOOOOOOOOOOOOOOOOOOOOOOOOOOOOOOOOOOOOOOOOOOOO....",
"....OOOOOOOOOOOOOOOOOOOOOOOOOOOOOOOOOOOOOOOOOOOOOOOOOOOOOOOO....",
"....OOOOOOOOOOOOOOOOOOOOOOOOOOOOOOOOOOOOOOOOOOOOOOOOOOOOOOOO....",
"....OOOOOOOOOOOOOOOOOOOOOOOOOOOOOOOOOOOOOOOOOOOOOOOOOOOOOOOO....",
"....OOOOOOOOOOOOOOOOOOOOOOOOOOOOOOOOOOOOOOOOOOOOOOOOOOOOOOOO....",
"....OOOOOOOOOOOOOOOOOOOOOOOOOOOOOOOOOOOOOOOOOOOOOOOOOOOOOOOO....",
"....OOOOOOOOOOOOOOOOOOOOOOOOOOOOOOOOOOOOOOOOOOOOOOOOOOOOOOOO....",
"XXXX........................................................XXXX",
"XXXX........................................................XXXX",
"XXXX........................................................XXXX",
"XXXX........................................................XXXX"
};
